<svg xmlns="http://www.w3.org/2000/svg" xmlns:xlink="http://www.w3.org/1999/xlink" viewBox="0,0,256,256" width="512px" height="512px" fill-rule="nonzero"><g fill="#ac0edf" fill-rule="nonzero" stroke="none" stroke-width="1" stroke-linecap="butt" stroke-linejoin="miter" stroke-miterlimit="10" stroke-dasharray="" stroke-dashoffset="0" font-family="none" font-weight="none" font-size="none" text-anchor="none" style="mix-blend-mode: normal"><g transform="scale(2,2)"><path d="M64,2c-34.2,0 -62,27.8 -62,62c0,10.5 2.59922,20.80039 7.69922,29.90039l-5.29883,19.40039c-0.9,3.1 -0.00117,6.29961 2.29883,8.59961c2.3,2.3 5.50156,3.20039 8.60156,2.40039l20.19922,-5.30078c8.8,4.6 18.59961,7 28.59961,7c34.2,0 62,-27.8 62,-62c-0.1,-16.5 -6.49922,-32.10078 -18.19922,-43.80078c-11.7,-11.7 -27.30039,-18.19922 -43.90039,-18.19922zM64,8c15,0 29.09961,5.80039 39.59961,16.40039c10.6,10.6 16.50039,24.69961 16.40039,39.59961c0,30.9 -25.1,56 -56,56c-9.3,0 -18.60078,-2.40078 -26.80078,-6.80078c-0.4,-0.2 -0.89844,-0.39844 -1.39844,-0.39844c-0.3,0 -0.50078,-0.00039 -0.80078,0.09961l-21.30078,5.59961c-1.5,0.4 -2.49844,-0.40078 -2.89844,-0.80078c-0.4,-0.4 -1.20078,-1.39844 -0.80078,-2.89844l5.59961,-20.60156c0.2,-0.8 0.10117,-1.59883 -0.29883,-2.29883c-4.8,-8.4 -7.30078,-18.10039 -7.30078,-27.90039c0,-30.9 25.1,-56 56,-56zM64,17c-25.9,0 -47,21 -47,47c0,8.3 2.20078,16.4 6.30078,23.5c1.6,2.8 1.99922,6.09922 1.19922,9.19922l-2.90039,10.5l11.20117,-2.89844c1,-0.3 2,-0.40039 3,-0.40039c2,0 3.99922,0.5 5.69922,1.5c6.9,3.6 14.6,5.59961 22.5,5.59961c25.9,0 47,-21.1 47,-47c0,-12.6 -4.89922,-24.40078 -13.69922,-33.30078c-8.9,-8.8 -20.70078,-13.69922 -33.30078,-13.69922zM94.49414,45.93945c1.95,0.09844 3.50664,2.23477 2.30664,4.25977l-15,24.40039c-3.6,5.8 -11.60117,7.00078 -16.70117,2.30078l-9,-8.30078c-1.3,-1.2 -3.39883,-1.29961 -4.79883,-0.09961l-16.10156,13.80078c-2.9,2.5 -6.99844,-1.10078 -4.89844,-4.30078l15.69922,-24.5c3.3,-5.1 10.30039,-6.20078 14.90039,-2.30078l10.40039,8.70117c1.3,1.1 3.2,1.1 4.5,0l16.69922,-13.30078c0.65,-0.5 1.34414,-0.69297 1.99414,-0.66016z"></path></g></g></svg>